<svg xmlns="http://www.w3.org/2000/svg" viewBox="0 0 135.847 34.524"><defs><style>.a,.d{fill:#00ae60;}.a{font-size:6px;}.a,.b{font-family:Helvetica;}.b{fill:#fff;font-size:10px;}.c{fill:rgba(0,0,0,0);}</style></defs><text class="a" transform="translate(62.847 26.951)"><tspan x="0" y="0">A P O T H E C A R Y</tspan></text><text class="b" transform="translate(48.847 17.951)"><tspan x="0" y="0">A M S T E R D A M </tspan></text><g transform="translate(0)"><path class="c" d="M110.707-1402.488c.388.433.992,1.2,1.522,1.926a20.3,20.3,0,0,1,3.964,9.323,16.393,16.393,0,0,1-.028,4.218,18.771,18.771,0,0,1-3,7.594,27.671,27.671,0,0,1-2.464,3.2l-.136.153-.077-.073s-.256-.281-.471-.536a24.027,24.027,0,0,1-3.527-5.308,16.042,16.042,0,0,1-1.719-7.237,13.572,13.572,0,0,1,.182-2.439,21.558,21.558,0,0,1,4.808-10.037c.33-.405.776-.931.8-.931a1.4,1.4,0,0,1,.146.147Zm-11.785,7.2a20.455,20.455,0,0,1,2.427.931,15.9,15.9,0,0,1,1.839,1.033l.176.121-.015.153a23.1,23.1,0,0,0,.5,6.944c.785,3.4,2.877,6.431,5.344,9.418.164.2,1.254,1.192,1.079,1.293,0,0-1.317-.486-1.331-.49a15.452,15.452,0,0,1-2.018-.874,3.644,3.644,0,0,1-.795-.564,17,17,0,0,1-6.379-9.5,16.564,16.564,0,0,1-.41-3.533l-.018-.845-.37-.137c-.2-.073-.514-.175-.69-.226l-.317-.089.022-.3a23.1,23.1,0,0,1,.326-2.375,6.291,6.291,0,0,1,.246-1.068,3.742,3.742,0,0,1,.385.111Zm23.729,0a24.793,24.793,0,0,1,.527,3.44l.009.188-.154.045c-.206.061-.884.29-1.084.367l-.163.061v.727a15.327,15.327,0,0,1-3.6,10.046,28.4,28.4,0,0,1-2.285,2.347,20.179,20.179,0,0,1-1.586,1.269,30.786,30.786,0,0,1-3.136,1.408.293.293,0,0,1-.062,0c-.233.054.548-.64,1.079-1.293,3.875-4.757,6.025-10.266,5.6-16.26l-.018-.271.225-.147a16.311,16.311,0,0,1,3.647-1.734c1.033-.353.971-.34,1-.194Zm-28.972,3.571a19.846,19.846,0,0,1,3.049.4,8.757,8.757,0,0,1,1.993.6c-.018.08.062,1.632.1,2.037.049.443.055.5.111.864a17.138,17.138,0,0,0,6.456,10.693c.172.14.978.622.972.628-.025.026-1.446-.679-2.118-1.023a14,14,0,0,1-5.5-4.766,14.16,14.16,0,0,1-1.768-3.963l-.052-.2-.311.019c-.773.048-1.207.089-1.636.147-.468.064-1.3.207-1.383.239a.052.052,0,0,1-.059-.01,16.467,16.467,0,0,1-.3-1.875,27.013,27.013,0,0,1-.136-3.577c.018-.245.022-.261.083-.249.041.01.263.026.5.035Zm34.35,1.266a23.432,23.432,0,0,1-.16,2.767,15.37,15.37,0,0,1-.268,1.642.47.47,0,0,1-.145-.019c-.3-.07-1.041-.188-1.559-.249a15.505,15.505,0,0,0-1.679-.115.237.237,0,0,0-.046.121c-.043.2-.333,1.1-.484,1.489a13.592,13.592,0,0,1-6.816,7.317c-.567.287-1.982,1.053-2,1.033s.741-.546.947-.718a21.171,21.171,0,0,0,3.2-3.3,15.368,15.368,0,0,0,1.882-3.086,15.754,15.754,0,0,0,1.494-6.523l.022-.663.367-.121a17.98,17.98,0,0,1,2.868-.66,15.986,15.986,0,0,1,2.369-.188c.015.009.018.552.009,1.272Zm-31.488,4.958a13.779,13.779,0,0,0,4.13,6.37,19.635,19.635,0,0,0,8.264,4.017c.259.067,1.335.3,1.331.3s-1.809-.07-2.308-.032c-.228.016-.81.032-1.294.032a15.316,15.316,0,0,1-5.4-.88,13.508,13.508,0,0,1-5.689-4.071c-.249-.3-.3-.341-.363-.325a15.487,15.487,0,0,0-1.99.972,1.654,1.654,0,0,1-.422.2c-.012-.016-.123-.207-.246-.427a22.039,22.039,0,0,1-1.318-2.965c-.206-.583-.536-1.635-.622-1.977-.018-.08-.04-.166-.049-.194s.071-.08.425-.2a21.362,21.362,0,0,1,4.968-1.071c.154-.016.326-.029.385-.032h.111Zm28.756-.23a19.749,19.749,0,0,1,2.51.4c1.047.255,1.435.364,2.227.625.416.137.53.185.53.23a24.378,24.378,0,0,1-.819,2.583c-.237.618-.635,1.53-.847,1.951a10.4,10.4,0,0,1-.591,1.052c-.012,0-.179-.092-.37-.2a15.022,15.022,0,0,0-2.064-1.007,2.364,2.364,0,0,0-.345.37,15.92,15.92,0,0,1-2.11,2.056,13.028,13.028,0,0,1-5.359,2.509c-.249.057-.477.1-1,.182a20.209,20.209,0,0,1-4.05.127c-.61-.048-1.812.029-1.827.016s.752-.2,1.017-.271a19.542,19.542,0,0,0,8.387-4.129,18.41,18.41,0,0,0,1.586-1.661,13.837,13.837,0,0,0,1.614-2.563,16.3,16.3,0,0,0,.77-1.913c.108-.351.129-.4.185-.4.027-.006.277.017.559.042ZM95.664-1378.8a16.6,16.6,0,0,0,1.328,1.272,13.487,13.487,0,0,0,4.358,2.48,17.961,17.961,0,0,0,7.9.666c.213-.026.4-.045.413-.045.046,0-.089.137-.474.491a12.871,12.871,0,0,1-6.764,3.545,13.009,13.009,0,0,1-2.122.048c-3.21-.309-6.354-2.283-9.33-5.857-.163-.194-.3-.363-.3-.373a13.175,13.175,0,0,1,1.032-.839,17.188,17.188,0,0,1,2.972-1.821l.416-.2.154.169C95.337-1379.159,95.522-1378.952,95.664-1378.8Zm30.774-.44a17.932,17.932,0,0,1,3.21,2c.644.5.792.625.792.663a13.7,13.7,0,0,1-1.383,1.62,16.713,16.713,0,0,1-4.657,3.574,10.423,10.423,0,0,1-3.142.995,8.547,8.547,0,0,1-1.257.057,6.882,6.882,0,0,1-1.771-.147,12.862,12.862,0,0,1-5.775-3.006,13.664,13.664,0,0,1-1.007-.934,1.838,1.838,0,0,1,.286.019,22.8,22.8,0,0,0,4.479.1,13.9,13.9,0,0,0,9.163-4.4c.222-.236.456-.5.521-.577.137-.167.073-.173.541.04Z" transform="translate(-89.467 1403.738)"/><path class="d" d="M110.563-1402.638c-.022,0-.468.526-.8.931a21.559,21.559,0,0,0-4.808,10.037,13.573,13.573,0,0,0-.182,2.439,16.043,16.043,0,0,0,1.719,7.237,24.026,24.026,0,0,0,3.527,5.308c.216.255.471.536.471.536l.077.073.136-.153a27.672,27.672,0,0,0,2.464-3.2,18.771,18.771,0,0,0,3-7.594,16.394,16.394,0,0,0,.028-4.218,20.3,20.3,0,0,0-3.964-9.323c-.53-.727-1.133-1.492-1.522-1.926a1.4,1.4,0,0,0-.145-.15M98.535-1395.4a6.291,6.291,0,0,0-.246,1.068,23.1,23.1,0,0,0-.326,2.375l-.022.3.317.089c.176.051.487.153.69.226l.37.137.018.845a16.566,16.566,0,0,0,.41,3.533,17,17,0,0,0,6.379,9.5,3.638,3.638,0,0,0,.795.564,15.423,15.423,0,0,0,2.017.874c.014,0,1.32.49,1.331.49h0c.175-.1-.915-1.1-1.079-1.293-2.467-2.987-4.559-6.016-5.344-9.418a23.1,23.1,0,0,1-.5-6.944l.015-.153-.176-.121a15.89,15.89,0,0,0-1.839-1.033,20.433,20.433,0,0,0-2.427-.931c-.2-.064-.376-.115-.388-.115m24.046.015a5.871,5.871,0,0,0-.933.288,16.314,16.314,0,0,0-3.647,1.734l-.225.147.018.271c.428,5.994-1.722,11.5-5.6,16.26-.512.63-1.255,1.3-1.1,1.3l.022,0h.062a30.811,30.811,0,0,0,3.136-1.408,20.16,20.16,0,0,0,1.586-1.269,28.411,28.411,0,0,0,2.285-2.347,15.327,15.327,0,0,0,3.6-10.046v-.727l.163-.061c.2-.077.878-.306,1.084-.367l.154-.045-.009-.188a24.8,24.8,0,0,0-.527-3.44c-.013-.06-.01-.1-.071-.1m-29.42,3.633c-.039,0-.044.042-.06.252a27.015,27.015,0,0,0,.136,3.577,16.465,16.465,0,0,0,.3,1.875.043.043,0,0,0,.035.014.066.066,0,0,0,.024,0c.08-.032.915-.175,1.383-.239.428-.057.862-.1,1.636-.147l.311-.019.052.2a14.159,14.159,0,0,0,1.768,3.963,14,14,0,0,0,5.5,4.766c.66.338,2.043,1.024,2.115,1.024h0c.006-.006-.8-.488-.972-.628a17.138,17.138,0,0,1-6.456-10.693c-.055-.36-.062-.421-.111-.864-.04-.405-.12-1.958-.1-2.037a8.751,8.751,0,0,0-1.993-.6,19.848,19.848,0,0,0-3.049-.4c-.237-.01-.459-.025-.5-.032l-.024,0m34.724.013a22.344,22.344,0,0,0-2.233.2,17.978,17.978,0,0,0-2.868.66l-.367.121-.022.663a15.754,15.754,0,0,1-1.494,6.523,15.376,15.376,0,0,1-1.882,3.086,21.169,21.169,0,0,1-3.2,3.3c-.206.172-.953.711-.947.718h0c.055,0,1.442-.75,2-1.034a13.591,13.591,0,0,0,6.816-7.317c.151-.392.44-1.288.484-1.489a.236.236,0,0,1,.046-.121.259.259,0,0,1,.075-.005c.254,0,1.09.06,1.6.12s1.254.179,1.559.249a.848.848,0,0,0,.133.021.02.02,0,0,0,.011,0,15.374,15.374,0,0,0,.268-1.642,23.429,23.429,0,0,0,.16-2.767c.009-.72.006-1.263-.009-1.275a.377.377,0,0,0-.136-.012m-31.43,5.968-.111,0c-.059,0-.231.016-.385.032a21.359,21.359,0,0,0-4.968,1.071c-.354.118-.437.156-.425.2s.031.115.049.194c.086.341.416,1.393.622,1.977a22.036,22.036,0,0,0,1.318,2.965c.123.22.234.411.246.427h0a2.014,2.014,0,0,0,.417-.205,15.469,15.469,0,0,1,1.99-.972l.021,0c.055,0,.121.065.343.328a13.508,13.508,0,0,0,5.689,4.071,15.314,15.314,0,0,0,5.4.88c.484,0,1.066-.016,1.294-.032.1-.007.237-.01.405-.01.65,0,1.686.043,1.873.043h.03s-1.073-.236-1.331-.3a19.633,19.633,0,0,1-8.264-4.017,13.779,13.779,0,0,1-4.13-6.37l-.086-.277m28.285,0c-.055,0-.077.048-.185.4a16.294,16.294,0,0,1-.77,1.913,13.842,13.842,0,0,1-1.614,2.563,18.428,18.428,0,0,1-1.586,1.661,19.541,19.541,0,0,1-8.387,4.129c-.265.067-1.02.265-1.017.271h.025c.13,0,.741-.033,1.278-.033.192,0,.375,0,.524.016.414.032.886.047,1.369.047a18.354,18.354,0,0,0,2.682-.174c.524-.083.752-.124,1-.182a13.028,13.028,0,0,0,5.359-2.509,15.928,15.928,0,0,0,2.11-2.056,2.373,2.373,0,0,1,.345-.37,15.037,15.037,0,0,1,2.064,1.007c.191.112.357.2.37.2a10.378,10.378,0,0,0,.591-1.052c.213-.421.61-1.333.847-1.951a24.376,24.376,0,0,0,.819-2.583c0-.045-.114-.093-.53-.23-.792-.261-1.18-.37-2.227-.625a19.725,19.725,0,0,0-2.51-.4c-.28-.026-.53-.048-.558-.048M95.1-1379.424l-.416.2a17.185,17.185,0,0,0-2.972,1.821,13.2,13.2,0,0,0-1.032.839c0,.01.132.178.3.373,2.975,3.574,6.12,5.548,9.33,5.857.163.016.411.024.685.024a12.2,12.2,0,0,0,1.438-.072,12.872,12.872,0,0,0,6.764-3.545c.385-.354.521-.491.474-.491-.015,0-.2.019-.413.045a22.182,22.182,0,0,1-2.586.156,16.3,16.3,0,0,1-5.314-.822,13.485,13.485,0,0,1-4.358-2.48,16.585,16.585,0,0,1-1.328-1.272c-.142-.156-.326-.364-.413-.459l-.154-.169m30.939.025c-.054,0-.074.044-.14.125s-.3.341-.521.577a13.9,13.9,0,0,1-9.163,4.4c-.493.046-1.046.069-1.629.069a24.868,24.868,0,0,1-2.85-.167c-.119-.013-.224-.021-.267-.021a.049.049,0,0,0-.02,0c-.012.016.554.542,1.007.934a12.862,12.862,0,0,0,5.775,3.006,6.883,6.883,0,0,0,1.771.147,8.519,8.519,0,0,0,1.257-.057,10.419,10.419,0,0,0,3.142-.995,16.708,16.708,0,0,0,4.657-3.574,13.691,13.691,0,0,0,1.383-1.62c0-.038-.148-.162-.792-.663a17.933,17.933,0,0,0-3.21-2,1.617,1.617,0,0,0-.4-.163m-15.473-24.339a1.247,1.247,0,0,1,.966.518c.406.454,1.031,1.243,1.59,2.01a22.8,22.8,0,0,1,3.662,7.33l.4-.258.225-.147a17.509,17.509,0,0,1,3.893-1.854l.147-.05a3.56,3.56,0,0,1,1.14-.3,1.15,1.15,0,0,1,1.149.975v0a30.163,30.163,0,0,1,.512,3.113c.421-.09.848-.167,1.254-.226a23.17,23.17,0,0,1,2.391-.212,1.24,1.24,0,0,1,.837.265,1.364,1.364,0,0,1,.412,1.212c0,.239,0,.559,0,.925a24.537,24.537,0,0,1-.168,2.884c-.038.318-.1.727-.157,1.1-.014.085-.027.164-.039.238.613.157,1,.272,1.614.476.263.087.4.137.511.184a1.166,1.166,0,0,1,.774,1.09,4.6,4.6,0,0,1-.348,1.387c-.148.467-.369,1.13-.544,1.588-.248.647-.657,1.587-.893,2.055l0,.005,0,.005c-.129.248-.268.507-.384.716.287.2.567.406.833.613.357.277.544.426.667.529a1.289,1.289,0,0,1,.547.949c.025.487-.249.808-.7,1.33-.285.334-.644.733-.985,1.095a17.808,17.808,0,0,1-4.971,3.806,11.573,11.573,0,0,1-3.458,1.1,9.458,9.458,0,0,1-1.423.071H120a7.856,7.856,0,0,1-1.971-.165,14.019,14.019,0,0,1-6.3-3.257c-.221-.192-.485-.428-.706-.633-.11-.1-.2-.187-.265-.252-.045-.044-.079-.08-.108-.111a1.294,1.294,0,0,1-.086-.1l-.028.007a1.89,1.89,0,0,1-.2.23c-.087.087-.214.207-.411.388a13.993,13.993,0,0,1-7.341,3.823,13.086,13.086,0,0,1-1.6.084c-.333,0-.6-.01-.794-.029-3.508-.338-6.9-2.44-10.066-6.248-.365-.435-.55-.655-.55-1.077,0-.542.306-.792.769-1.168.241-.2.5-.4.7-.551s.394-.292.59-.43l-.044-.078a23.175,23.175,0,0,1-1.4-3.134c-.213-.6-.554-1.689-.652-2.076l0-.011,0-.011c-.014-.059-.025-.1-.03-.121l0-.008a1.152,1.152,0,0,1,.666-1.381,4.445,4.445,0,0,1,.466-.174c.6-.2,1.166-.368,1.725-.512-.018-.1-.037-.218-.059-.355-.067-.421-.129-.881-.167-1.229a27.876,27.876,0,0,1-.139-3.779,2.49,2.49,0,0,1,.043-.355,1.14,1.14,0,0,1,1.113-.913,1.182,1.182,0,0,1,.177.014c.055,0,.206.015.386.022h.005a20.987,20.987,0,0,1,3.167.412c.065-.647.188-1.5.312-2.138.064-.336.124-.623.171-.826.027-.115.05-.2.071-.275a1.125,1.125,0,0,1,1.085-.857,2.16,2.16,0,0,1,.718.165,21.58,21.58,0,0,1,2.568.986,17,17,0,0,1,2,1.124l.172.119.326.225a24.385,24.385,0,0,1,4.593-8.515l0,0,0,0c.168-.207.367-.445.531-.637C109.79-1403.444,110.04-1403.738,110.563-1403.738Z" transform="translate(-89.467 1403.738)"/></g></svg>