<svg xmlns="http://www.w3.org/2000/svg" viewBox="0 0 140.913 48"><defs><style>.a,.c,.e{fill:#00ae60;}.a{font-size:14px;font-family:Montserrat-Regular, Montserrat;}.b{fill:none;}.c{font-size:33px;font-family:KaushanScript-Regular, Kaushan Script;}.d,.e{stroke:none;}</style></defs><g transform="translate(-658.087 -860)"><g transform="translate(-7 1)"><text class="a" transform="translate(732 882)"><tspan x="0" y="0">msterdam</tspan></text></g><g transform="translate(180 814.664)"><g class="b" transform="translate(388.62 1455.123)"><path class="d" d="M110.707-1402.488c.388.433.992,1.2,1.522,1.926a20.3,20.3,0,0,1,3.964,9.323,16.393,16.393,0,0,1-.028,4.218,18.771,18.771,0,0,1-3,7.594,27.672,27.672,0,0,1-2.464,3.2l-.136.153-.077-.073s-.256-.281-.471-.536a24.026,24.026,0,0,1-3.527-5.308,16.043,16.043,0,0,1-1.719-7.237,13.573,13.573,0,0,1,.182-2.439,21.559,21.559,0,0,1,4.808-10.037c.33-.405.776-.931.8-.931A1.4,1.4,0,0,1,110.707-1402.488Zm-11.785,7.2a20.434,20.434,0,0,1,2.427.931,15.891,15.891,0,0,1,1.839,1.033l.176.121-.015.153a23.1,23.1,0,0,0,.5,6.944c.785,3.4,2.877,6.431,5.344,9.418.164.2,1.254,1.192,1.079,1.293,0,0-1.317-.486-1.331-.49a15.423,15.423,0,0,1-2.018-.874,3.639,3.639,0,0,1-.795-.564,17,17,0,0,1-6.379-9.5,16.565,16.565,0,0,1-.41-3.533l-.018-.845-.37-.137c-.2-.073-.514-.175-.69-.226l-.317-.089.022-.3a23.1,23.1,0,0,1,.326-2.375,6.291,6.291,0,0,1,.246-1.068C98.547-1395.4,98.723-1395.349,98.923-1395.285Zm23.729,0a24.8,24.8,0,0,1,.527,3.44l.009.188-.154.045c-.206.061-.884.29-1.084.367l-.163.061v.727a15.327,15.327,0,0,1-3.6,10.046,28.411,28.411,0,0,1-2.285,2.347,20.162,20.162,0,0,1-1.586,1.269,30.811,30.811,0,0,1-3.136,1.408.288.288,0,0,1-.062,0c-.233.054.548-.64,1.079-1.293,3.875-4.757,6.025-10.266,5.6-16.26l-.018-.271.225-.147a16.314,16.314,0,0,1,3.647-1.734C122.683-1395.448,122.621-1395.435,122.652-1395.289Zm-28.972,3.571a19.848,19.848,0,0,1,3.049.4,8.751,8.751,0,0,1,1.993.6c-.018.08.062,1.632.1,2.037.049.443.055.5.111.864a17.138,17.138,0,0,0,6.456,10.693c.172.14.978.622.972.628-.025.026-1.446-.679-2.118-1.023a14,14,0,0,1-5.5-4.766,14.159,14.159,0,0,1-1.768-3.963l-.052-.2-.311.019c-.773.048-1.207.089-1.636.147-.468.064-1.3.207-1.383.239a.052.052,0,0,1-.059-.01,16.467,16.467,0,0,1-.3-1.875,27.013,27.013,0,0,1-.136-3.577c.018-.245.022-.261.083-.249C93.221-1391.743,93.443-1391.727,93.68-1391.718Zm34.35,1.266a23.431,23.431,0,0,1-.16,2.767,15.375,15.375,0,0,1-.268,1.642.47.47,0,0,1-.145-.019c-.3-.07-1.041-.188-1.559-.249a15.5,15.5,0,0,0-1.679-.115.236.236,0,0,0-.046.121c-.043.2-.333,1.1-.484,1.489a13.591,13.591,0,0,1-6.816,7.317c-.567.287-1.982,1.053-2,1.033-.006-.006.741-.546.947-.718a21.169,21.169,0,0,0,3.2-3.3,15.376,15.376,0,0,0,1.882-3.086,15.754,15.754,0,0,0,1.494-6.523l.022-.663.367-.121a17.978,17.978,0,0,1,2.868-.66,15.957,15.957,0,0,1,2.369-.188C128.036-1391.715,128.039-1391.172,128.03-1390.452Zm-31.488,4.958a13.779,13.779,0,0,0,4.13,6.37,19.633,19.633,0,0,0,8.264,4.017c.259.067,1.335.3,1.331.3s-1.809-.07-2.308-.032c-.228.016-.81.032-1.294.032a15.314,15.314,0,0,1-5.4-.88,13.508,13.508,0,0,1-5.689-4.071c-.249-.3-.3-.341-.363-.325a15.469,15.469,0,0,0-1.99.972,1.654,1.654,0,0,1-.422.2c-.012-.016-.123-.207-.246-.427a22.036,22.036,0,0,1-1.318-2.965c-.206-.583-.536-1.635-.622-1.977-.018-.08-.04-.166-.049-.194s.071-.08.425-.2a21.359,21.359,0,0,1,4.968-1.071c.154-.016.326-.029.385-.032l.111,0Zm28.756-.23a19.725,19.725,0,0,1,2.51.4c1.047.255,1.435.364,2.227.625.416.137.53.185.53.23a24.376,24.376,0,0,1-.819,2.583c-.237.618-.635,1.53-.847,1.951a10.378,10.378,0,0,1-.591,1.052c-.012,0-.179-.092-.37-.2a15.037,15.037,0,0,0-2.064-1.007,2.373,2.373,0,0,0-.345.37,15.928,15.928,0,0,1-2.11,2.056,13.028,13.028,0,0,1-5.359,2.509c-.249.057-.477.1-1,.182a20.214,20.214,0,0,1-4.05.127c-.61-.048-1.812.029-1.827.016s.752-.2,1.017-.271a19.541,19.541,0,0,0,8.387-4.129,18.43,18.43,0,0,0,1.586-1.661,13.843,13.843,0,0,0,1.614-2.563,16.293,16.293,0,0,0,.77-1.913c.108-.351.129-.4.185-.4C124.768-1385.772,125.018-1385.749,125.3-1385.724ZM95.664-1378.8a16.584,16.584,0,0,0,1.328,1.272,13.485,13.485,0,0,0,4.358,2.48,17.959,17.959,0,0,0,7.9.666c.213-.026.4-.045.413-.045.046,0-.089.137-.474.491a12.872,12.872,0,0,1-6.764,3.545,13.005,13.005,0,0,1-2.122.048c-3.21-.309-6.354-2.283-9.33-5.857-.163-.194-.3-.363-.3-.373a13.2,13.2,0,0,1,1.032-.839,17.185,17.185,0,0,1,2.972-1.821l.416-.2.154.169C95.337-1379.159,95.522-1378.952,95.664-1378.8Zm30.774-.44a17.933,17.933,0,0,1,3.21,2c.644.5.792.625.792.663a13.691,13.691,0,0,1-1.383,1.62,16.708,16.708,0,0,1-4.657,3.574,10.419,10.419,0,0,1-3.142.995,8.519,8.519,0,0,1-1.257.057,6.883,6.883,0,0,1-1.771-.147,12.862,12.862,0,0,1-5.775-3.006c-.453-.392-1.02-.918-1.007-.934a1.854,1.854,0,0,1,.286.019,22.79,22.79,0,0,0,4.479.1,13.9,13.9,0,0,0,9.163-4.4c.222-.236.456-.5.521-.577C126.034-1379.443,125.97-1379.449,126.438-1379.236Z"/><path class="e" d="M 110.5626831054688 -1402.637573242188 C 110.5411224365234 -1402.637573242188 110.0944976806641 -1402.111572265625 109.7649230957031 -1401.70654296875 C 107.1098175048828 -1398.40673828125 105.4588775634766 -1394.966552734375 104.9568023681641 -1391.669921875 C 104.8120422363281 -1390.7197265625 104.7750701904297 -1390.21923828125 104.7750701904297 -1389.23095703125 C 104.7750701904297 -1386.712158203125 105.3048629760742 -1384.477172851562 106.4937973022461 -1381.993530273438 C 107.365478515625 -1380.169799804688 108.5020599365234 -1378.4609375 110.0205688476562 -1376.68505859375 C 110.2361679077148 -1376.429931640625 110.4918441772461 -1376.1494140625 110.4918441772461 -1376.1494140625 L 110.5688400268555 -1376.076049804688 L 110.7043685913086 -1376.22900390625 C 111.6099319458008 -1377.242919921875 112.4692916870117 -1378.35888671875 113.1684875488281 -1379.427001953125 C 114.7886505126953 -1381.901000976562 115.8112640380859 -1384.496337890625 116.1654815673828 -1387.021362304688 C 116.3564376831055 -1388.3955078125 116.3656845092773 -1389.884521484375 116.1932144165039 -1391.239501953125 C 115.7989273071289 -1394.351318359375 114.4529113769531 -1397.513916015625 112.2290420532227 -1400.56201171875 C 111.6992645263672 -1401.288818359375 111.0955505371094 -1402.05419921875 110.7074432373047 -1402.487670898438 C 110.6335296630859 -1402.570556640625 110.5688400268555 -1402.637573242188 110.5626831054688 -1402.637573242188 M 98.53468322753906 -1395.400146484375 C 98.51004791259766 -1395.400146484375 98.41764068603516 -1395.008056640625 98.28826904296875 -1394.332153320312 C 98.14659118652344 -1393.605224609375 98.00489807128906 -1392.575317382812 97.96178436279297 -1391.956787109375 L 97.94020843505859 -1391.653930664062 L 98.25746917724609 -1391.564697265625 C 98.43304443359375 -1391.513671875 98.744140625 -1391.41162109375 98.94743347167969 -1391.33837890625 L 99.31704711914062 -1391.201171875 L 99.33551788330078 -1390.356323242188 C 99.36940765380859 -1388.9599609375 99.48336791992188 -1387.974609375 99.74517822265625 -1386.82373046875 C 100.5645141601562 -1383.233764648438 102.705207824707 -1380.04541015625 106.1241836547852 -1377.319580078125 C 106.6601181030273 -1376.8955078125 106.783332824707 -1376.80615234375 106.9188537597656 -1376.755126953125 C 107.3470001220703 -1376.60205078125 108.2032775878906 -1376.053588867188 108.9363479614258 -1375.88134765625 C 108.9507141113281 -1375.878051757812 110.2565689086914 -1375.3916015625 110.267707824707 -1375.3916015625 C 110.2677536010742 -1375.3916015625 110.2677764892578 -1375.3916015625 110.2677841186523 -1375.3916015625 C 110.4430694580078 -1375.4931640625 109.3530426025391 -1376.4892578125 109.1889343261719 -1376.68505859375 C 106.7217178344727 -1379.67236328125 104.6303100585938 -1382.701293945312 103.8448715209961 -1386.103271484375 C 103.3335571289062 -1388.319091796875 103.1487579345703 -1390.923828125 103.3489685058594 -1393.047241210938 L 103.3643646240234 -1393.200317382812 L 103.1888046264648 -1393.321533203125 C 102.8068542480469 -1393.589233398438 101.9505844116211 -1394.070556640625 101.3499374389648 -1394.3544921875 C 100.6969604492188 -1394.663696289062 99.71746826171875 -1395.039916992188 98.92278289794922 -1395.285400390625 C 98.72257995605469 -1395.34912109375 98.54701232910156 -1395.400146484375 98.53468322753906 -1395.400146484375 M 122.580810546875 -1395.385620117188 C 122.490608215332 -1395.385620117188 122.2627029418945 -1395.305541992188 121.6481475830078 -1395.097290039062 C 120.2805633544922 -1394.6318359375 119.0669784545898 -1394.0546875 118.0012588500977 -1393.36279296875 L 117.7763977050781 -1393.216186523438 L 117.7948837280273 -1392.9453125 C 118.2230224609375 -1386.951171875 116.0730819702148 -1381.44189453125 112.1982421875 -1376.68505859375 C 111.6862258911133 -1376.055053710938 110.9430618286133 -1375.388671875 111.0973892211914 -1375.388671875 C 111.1032562255859 -1375.388671875 111.1104354858398 -1375.3896484375 111.1189575195312 -1375.3916015625 C 111.1416244506836 -1375.390747070312 111.1554718017578 -1375.390502929688 111.1642379760742 -1375.390502929688 C 111.1762390136719 -1375.390502929688 111.1787338256836 -1375.390991210938 111.1812973022461 -1375.3916015625 C 111.7665176391602 -1375.522216796875 114.1202621459961 -1376.7041015625 114.3173828125 -1376.7998046875 C 114.4498443603516 -1376.863525390625 115.3369216918945 -1377.574584960938 115.9036636352539 -1378.068725585938 C 116.4858245849609 -1378.57568359375 117.7455978393555 -1379.8701171875 118.1891403198242 -1380.415283203125 C 120.6132278442383 -1383.39306640625 121.786750793457 -1386.670654296875 121.786750793457 -1390.461547851562 L 121.786750793457 -1391.1884765625 L 121.9500045776367 -1391.2490234375 C 122.1502075195312 -1391.325561523438 122.8278579711914 -1391.55517578125 123.0342178344727 -1391.61572265625 L 123.1882171630859 -1391.660400390625 L 123.1789779663086 -1391.848388671875 C 123.1420211791992 -1392.616821289062 122.951057434082 -1393.863403320312 122.6522827148438 -1395.28857421875 C 122.6397705078125 -1395.34814453125 122.6425094604492 -1395.385620117188 122.580810546875 -1395.385620117188 M 93.16094970703125 -1391.752685546875 C 93.12163543701172 -1391.752685546875 93.11708068847656 -1391.71044921875 93.10128784179688 -1391.5009765625 C 93.04893493652344 -1390.8154296875 93.11669921875 -1389.010986328125 93.23682403564453 -1387.923706054688 C 93.31382751464844 -1387.20947265625 93.48631286621094 -1386.128662109375 93.53252410888672 -1386.048950195312 C 93.53870391845703 -1386.040405273438 93.55176544189453 -1386.034790039062 93.56711578369141 -1386.034790039062 C 93.57472229003906 -1386.034790039062 93.58287811279297 -1386.0361328125 93.59104156494141 -1386.039306640625 C 93.67112731933594 -1386.0712890625 94.50584411621094 -1386.214721679688 94.97402954101562 -1386.278564453125 C 95.40216827392578 -1386.3359375 95.83647155761719 -1386.37744140625 96.60958862304688 -1386.425170898438 L 96.92067718505859 -1386.4443359375 L 96.97303771972656 -1386.243408203125 C 97.34267425537109 -1384.869384765625 97.99258422851562 -1383.4091796875 98.74105834960938 -1382.280395507812 C 100.0655212402344 -1380.284545898438 101.8519973754883 -1378.73828125 104.2452774047852 -1377.513916015625 C 104.9048767089844 -1377.17578125 106.2883758544922 -1376.48974609375 106.3604888916016 -1376.48974609375 C 106.3617935180664 -1376.48974609375 106.362663269043 -1376.489990234375 106.3630981445312 -1376.490478515625 C 106.3692626953125 -1376.496826171875 105.563591003418 -1376.978271484375 105.3910980224609 -1377.11865234375 C 101.7226409912109 -1380.156982421875 99.56961822509766 -1383.727905273438 98.93510437011719 -1387.81201171875 C 98.87966918945312 -1388.17236328125 98.87350463867188 -1388.23291015625 98.82421875 -1388.676025390625 C 98.7841796875 -1389.0810546875 98.70409393310547 -1390.6337890625 98.72257995605469 -1390.71337890625 C 98.74105834960938 -1390.786743164062 97.58599853515625 -1391.13427734375 96.72972106933594 -1391.31591796875 C 95.74406433105469 -1391.5263671875 94.60133361816406 -1391.67626953125 93.68035888671875 -1391.7177734375 C 93.44319152832031 -1391.727294921875 93.22142791748047 -1391.7431640625 93.18446350097656 -1391.749633789062 C 93.17544555664062 -1391.75146484375 93.16768646240234 -1391.752685546875 93.16094970703125 -1391.752685546875 M 127.8851547241211 -1391.739501953125 C 127.4912796020508 -1391.739501953125 126.3448257446289 -1391.640502929688 125.6523513793945 -1391.539184570312 C 124.685173034668 -1391.39892578125 123.5763244628906 -1391.143798828125 122.7847290039062 -1390.879150390625 L 122.4181900024414 -1390.758056640625 L 122.3966445922852 -1390.094848632812 C 122.3227005004883 -1387.627197265625 121.8637619018555 -1385.621704101562 120.9027481079102 -1383.57177734375 C 120.3575744628906 -1382.40478515625 119.8308639526367 -1381.540771484375 119.0207824707031 -1380.4853515625 C 118.1460189819336 -1379.343994140625 117.0156021118164 -1378.177124023438 115.8174209594727 -1377.182373046875 C 115.6110534667969 -1377.01025390625 114.864387512207 -1376.470947265625 114.8705444335938 -1376.464599609375 C 114.8708038330078 -1376.46435546875 114.8712844848633 -1376.464233398438 114.8719711303711 -1376.464233398438 C 114.9268646240234 -1376.464233398438 116.3141555786133 -1377.214721679688 116.873908996582 -1377.498046875 C 120.1604385375977 -1379.162353515625 122.4767074584961 -1381.649169921875 123.6902923583984 -1384.815185546875 C 123.8412170410156 -1385.207275390625 124.1307373046875 -1386.103271484375 124.1738739013672 -1386.303955078125 C 124.1831207275391 -1386.361450195312 124.2046890258789 -1386.41552734375 124.2200775146484 -1386.425170898438 C 124.225830078125 -1386.428833007812 124.2521362304688 -1386.430541992188 124.2948379516602 -1386.430541992188 C 124.54931640625 -1386.430541992188 125.3844299316406 -1386.370483398438 125.8987579345703 -1386.310546875 C 126.4162292480469 -1386.249755859375 127.1523895263672 -1386.1318359375 127.4573135375977 -1386.061767578125 C 127.5154724121094 -1386.049194335938 127.5679016113281 -1386.040649414062 127.5906219482422 -1386.040649414062 C 127.5967864990234 -1386.040649414062 127.6007690429688 -1386.041259765625 127.6020812988281 -1386.042602539062 C 127.6359710693359 -1386.074462890625 127.7930526733398 -1387.043701171875 127.8700485229492 -1387.6845703125 C 127.9747924804688 -1388.55810546875 128.0148315429688 -1389.24365234375 128.0302124023438 -1390.452026367188 C 128.0394592285156 -1391.172485351562 128.036376953125 -1391.714599609375 128.0209808349609 -1391.727294921875 C 128.0108642578125 -1391.735717773438 127.9625549316406 -1391.739501953125 127.8851547241211 -1391.739501953125 M 96.45558166503906 -1385.771606445312 L 96.34468841552734 -1385.768432617188 C 96.28617858886719 -1385.76513671875 96.11369323730469 -1385.75244140625 95.95967864990234 -1385.736572265625 C 94.28099822998047 -1385.580322265625 92.77787780761719 -1385.25830078125 90.99139404296875 -1384.665283203125 C 90.63717651367188 -1384.54736328125 90.55401611328125 -1384.509033203125 90.56632995605469 -1384.467529296875 C 90.57557678222656 -1384.43896484375 90.59713745117188 -1384.352783203125 90.61561584472656 -1384.273071289062 C 90.70185852050781 -1383.931884765625 91.03143310546875 -1382.8798828125 91.23780822753906 -1382.29638671875 C 91.58586120605469 -1381.317626953125 92.11872863769531 -1380.118774414062 92.55610656738281 -1379.331298828125 C 92.6793212890625 -1379.111328125 92.79020690917969 -1378.919921875 92.80252075195312 -1378.904052734375 C 92.80349731445312 -1378.903198242188 92.80517578125 -1378.90283203125 92.80751037597656 -1378.90283203125 C 92.8419189453125 -1378.90283203125 93.01969909667969 -1378.988647460938 93.22450256347656 -1379.108154296875 C 93.85593414306641 -1379.474853515625 94.96787261962891 -1380.016723632812 95.21427917480469 -1380.08056640625 C 95.22114562988281 -1380.082397460938 95.22789764404297 -1380.083374023438 95.23481750488281 -1380.083374023438 C 95.29000854492188 -1380.083374023438 95.35605621337891 -1380.018676757812 95.57774353027344 -1379.75537109375 C 97.17018127441406 -1377.861572265625 99.1414794921875 -1376.449096679688 101.2667770385742 -1375.683959960938 C 102.9639434814453 -1375.074951171875 104.6087493896484 -1374.80712890625 106.6662902832031 -1374.803955078125 C 107.1498718261719 -1374.803955078125 107.7320175170898 -1374.81982421875 107.9599533081055 -1374.835815429688 C 108.055061340332 -1374.843139648438 108.1972427368164 -1374.846069335938 108.3653030395508 -1374.846069335938 C 109.0151443481445 -1374.846069335938 110.0508117675781 -1374.802612304688 110.2382431030273 -1374.802612304688 C 110.2566299438477 -1374.802612304688 110.2668914794922 -1374.803100585938 110.2677841186523 -1374.803955078125 C 110.2708587646484 -1374.80712890625 109.1950912475586 -1375.039794921875 108.9363479614258 -1375.106811523438 C 105.5050735473633 -1375.967651367188 102.7914581298828 -1377.290771484375 100.6723175048828 -1379.1240234375 C 98.74105834960938 -1380.7978515625 97.31802368164062 -1382.98828125 96.54182434082031 -1385.494140625 L 96.45558166503906 -1385.771606445312 M 124.7406234741211 -1385.771606445312 C 124.685173034668 -1385.771606445312 124.6636123657227 -1385.723754882812 124.5558242797852 -1385.373046875 C 124.4202880859375 -1384.920288085938 124.0445022583008 -1383.986083984375 123.785774230957 -1383.460083007812 C 123.3453140258789 -1382.5546875 122.7878036499023 -1381.6650390625 122.1717681884766 -1380.896728515625 C 121.8360443115234 -1380.475830078125 121.0136413574219 -1379.614990234375 120.5854873657227 -1379.235595703125 C 118.4509582519531 -1377.344970703125 115.6418533325195 -1375.961303710938 112.1982421875 -1375.106811523438 C 111.933349609375 -1375.039794921875 111.1782073974609 -1374.842163085938 111.1812973022461 -1374.835815429688 C 111.1825180053711 -1374.834838867188 111.1911468505859 -1374.834350585938 111.2063522338867 -1374.834350585938 C 111.3365936279297 -1374.834350585938 111.9474945068359 -1374.86767578125 112.4848175048828 -1374.86767578125 C 112.6772232055664 -1374.86767578125 112.8602447509766 -1374.863403320312 113.0083236694336 -1374.851806640625 C 113.4227447509766 -1374.820068359375 113.8940582275391 -1374.804809570312 114.377082824707 -1374.804809570312 C 115.3479995727539 -1374.804809570312 116.3655548095703 -1374.866455078125 117.058723449707 -1374.979248046875 C 117.5823516845703 -1375.062133789062 117.8102798461914 -1375.103637695312 118.0597686767578 -1375.161010742188 C 120.0834274291992 -1375.607421875 121.8545227050781 -1376.436279296875 123.4192276000977 -1377.670166015625 C 124.0999374389648 -1378.205810546875 124.9654846191406 -1379.05078125 125.5291442871094 -1379.7265625 C 125.6985473632812 -1379.9306640625 125.8525619506836 -1380.096435546875 125.8741226196289 -1380.096435546875 C 126.0004043579102 -1380.096435546875 127.3033142089844 -1379.462036132812 127.9378204345703 -1379.088989257812 C 128.1287841796875 -1378.977294921875 128.2951049804688 -1378.884887695312 128.3074340820312 -1378.884887695312 C 128.3320922851562 -1378.884887695312 128.630859375 -1379.420532226562 128.8988342285156 -1379.93701171875 C 129.1113586425781 -1380.35791015625 129.5086975097656 -1381.269775390625 129.7458801269531 -1381.88818359375 C 130.0477294921875 -1382.678955078125 130.565185546875 -1384.311401367188 130.565185546875 -1384.470703125 C 130.565185546875 -1384.515380859375 130.4512329101562 -1384.563232421875 130.035400390625 -1384.700317382812 C 129.2438049316406 -1384.961669921875 128.855712890625 -1385.070190429688 127.8084487915039 -1385.3251953125 C 127.1770172119141 -1385.4814453125 126.1420974731445 -1385.64404296875 125.2981338500977 -1385.723754882812 C 125.0178375244141 -1385.749267578125 124.7683486938477 -1385.771606445312 124.7406234741211 -1385.771606445312 M 95.09722900390625 -1379.423706054688 L 94.68141174316406 -1379.22607421875 C 93.64031982421875 -1378.7255859375 92.68855285644531 -1378.145263671875 91.70907592773438 -1377.405517578125 C 91.302490234375 -1377.102783203125 90.67721557617188 -1376.592529296875 90.67721557617188 -1376.567016601562 C 90.67721557617188 -1376.557495117188 90.80966186523438 -1376.388549804688 90.97291564941406 -1376.194091796875 C 93.94833374023438 -1372.619995117188 97.09317779541016 -1370.646484375 100.3026885986328 -1370.337158203125 C 100.4658737182617 -1370.32080078125 100.7139053344727 -1370.313354492188 100.9874038696289 -1370.313354492188 C 101.5140838623047 -1370.313354492188 102.135009765625 -1370.340942382812 102.424919128418 -1370.385009765625 C 104.768913269043 -1370.745239257812 106.9589080810547 -1371.89306640625 109.1889343261719 -1373.930419921875 C 109.5739440917969 -1374.2841796875 109.7094879150391 -1374.42138671875 109.6632843017578 -1374.42138671875 C 109.6478881835938 -1374.42138671875 109.4630737304688 -1374.402221679688 109.2505340576172 -1374.376708984375 C 108.3664398193359 -1374.272827148438 107.5024566650391 -1374.22119140625 106.6642532348633 -1374.22119140625 C 104.7252731323242 -1374.22119140625 102.92626953125 -1374.497680664062 101.3499374389648 -1375.043090820312 C 99.72670745849609 -1375.607421875 98.31599426269531 -1376.407592773438 96.99153137207031 -1377.5234375 C 96.60035705566406 -1377.851928710938 95.95352172851562 -1378.470458984375 95.66397857666016 -1378.795654296875 C 95.52229309082031 -1378.951904296875 95.33749389648438 -1379.1591796875 95.25125122070312 -1379.254760742188 L 95.09722900390625 -1379.423706054688 M 126.0358428955078 -1379.3984375 C 125.9818344116211 -1379.3984375 125.9620666503906 -1379.354858398438 125.8956680297852 -1379.27392578125 C 125.8310012817383 -1379.194091796875 125.5969085693359 -1378.932739257812 125.3751373291016 -1378.69677734375 C 122.9448776245117 -1376.104736328125 119.8863143920898 -1374.635009765625 116.2116775512695 -1374.293823242188 C 115.7185287475586 -1374.247924804688 115.1655960083008 -1374.225219726562 114.5829772949219 -1374.225219726562 C 113.6663665771484 -1374.225219726562 112.6766128540039 -1374.281494140625 111.7331390380859 -1374.392578125 C 111.6143798828125 -1374.4052734375 111.5089721679688 -1374.413818359375 111.4664306640625 -1374.413818359375 C 111.4549026489258 -1374.413818359375 111.4479904174805 -1374.413208007812 111.4466781616211 -1374.411865234375 C 111.4343643188477 -1374.395751953125 112.0010986328125 -1373.869873046875 112.4538879394531 -1373.4775390625 C 114.2681045532227 -1371.90576171875 116.3626022338867 -1370.8154296875 118.2291793823242 -1370.471069335938 C 118.9899826049805 -1370.330810546875 119.0793075561523 -1370.324462890625 120.0002670288086 -1370.324462890625 C 120.699462890625 -1370.32763671875 120.9889984130859 -1370.34033203125 121.2569732666016 -1370.3818359375 C 122.4089508056641 -1370.5634765625 123.3576278686523 -1370.86328125 124.3987274169922 -1371.376586914062 C 125.9973220825195 -1372.167236328125 127.5620422363281 -1373.369140625 129.055908203125 -1374.95068359375 C 129.7397155761719 -1375.677490234375 130.4450531005859 -1376.500122070312 130.4389038085938 -1376.5703125 C 130.4389038085938 -1376.608520507812 130.2910461425781 -1376.732788085938 129.6473083496094 -1377.2333984375 C 128.6370239257812 -1378.02099609375 127.3833923339844 -1378.802001953125 126.4377899169922 -1379.235595703125 C 126.1938629150391 -1379.346923828125 126.094596862793 -1379.3984375 126.0358428955078 -1379.3984375 M 110.5626831054688 -1403.737548828125 C 111.0667343139648 -1403.737548828125 111.3445892333984 -1403.425903320312 111.5284576416016 -1403.2197265625 C 111.9348297119141 -1402.765869140625 112.5593338012695 -1401.976318359375 113.1179580688477 -1401.2099609375 C 114.8717575073242 -1398.80615234375 116.0980377197266 -1396.349975585938 116.7803726196289 -1393.880004882812 L 117.1756439208984 -1394.1376953125 L 117.4004974365234 -1394.284301757812 C 118.5382232666016 -1395.02294921875 119.8475036621094 -1395.646362304688 121.2937393188477 -1396.138671875 L 121.4404220581055 -1396.188354492188 C 122.130989074707 -1396.422729492188 122.3166046142578 -1396.485717773438 122.580810546875 -1396.485717773438 C 123.063102722168 -1396.485717773438 123.605354309082 -1396.184326171875 123.7295837402344 -1395.511108398438 L 123.7288208007812 -1395.514526367188 C 123.9853363037109 -1394.291015625 124.1623840332031 -1393.210571289062 124.2404174804688 -1392.40185546875 C 124.6611633300781 -1392.491455078125 125.0885620117188 -1392.568969726562 125.4944839477539 -1392.627807617188 C 126.2106018066406 -1392.732543945312 127.4177932739258 -1392.839477539062 127.8851470947266 -1392.839477539062 C 128.0531005859375 -1392.839477539062 128.4025573730469 -1392.839477539062 128.7225341796875 -1392.574584960938 C 129.1288757324219 -1392.239501953125 129.1316223144531 -1391.833129882812 129.1348114013672 -1391.362548828125 C 129.1364440917969 -1391.123168945312 129.1348114013672 -1390.803344726562 129.130126953125 -1390.437866210938 C 129.1143188476562 -1389.196533203125 129.0719604492188 -1388.46875 128.9622344970703 -1387.553588867188 C 128.9240112304688 -1387.235595703125 128.865478515625 -1386.826293945312 128.8056030273438 -1386.45849609375 C 128.791748046875 -1386.373413085938 128.7789001464844 -1386.294311523438 128.7663269042969 -1386.220703125 C 129.379150390625 -1386.063842773438 129.7640991210938 -1385.9482421875 130.3802642822266 -1385.744873046875 C 130.6431579589844 -1385.658203125 130.7818908691406 -1385.608276367188 130.8916320800781 -1385.56103515625 C 131.5898132324219 -1385.260131835938 131.6651916503906 -1384.6982421875 131.6651916503906 -1384.470703125 C 131.6651916503906 -1384.315063476562 131.6651916503906 -1384.180786132812 131.3172607421875 -1383.083740234375 C 131.1691284179688 -1382.616577148438 130.9485015869141 -1381.954223632812 130.7735595703125 -1381.495849609375 C 130.5254821777344 -1380.84912109375 130.1169128417969 -1379.908935546875 129.8807525634766 -1379.441162109375 L 129.8780212402344 -1379.435791015625 L 129.8752288818359 -1379.430419921875 C 129.7464599609375 -1379.182250976562 129.6076354980469 -1378.923583984375 129.4907531738281 -1378.713989257812 C 129.7773284912109 -1378.514404296875 130.0574951171875 -1378.308349609375 130.3236236572266 -1378.100952148438 C 130.680419921875 -1377.823486328125 130.8678436279297 -1377.6748046875 130.9910888671875 -1377.571533203125 C 131.1763458251953 -1377.416259765625 131.5160522460938 -1377.131591796875 131.5378112792969 -1376.6220703125 C 131.5632629394531 -1376.135131835938 131.2886199951172 -1375.81396484375 130.8421630859375 -1375.291870117188 C 130.5567626953125 -1374.958129882812 130.1977081298828 -1374.558959960938 129.8570709228516 -1374.196899414062 C 128.2710571289062 -1372.517822265625 126.5991821289062 -1371.237670898438 124.8863906860352 -1370.390625 C 123.7516784667969 -1369.831176757812 122.6855392456055 -1369.493530273438 121.4282989501953 -1369.295288085938 C 121.0618743896484 -1369.238525390625 120.6935043334961 -1369.2275390625 120.0052719116211 -1369.224487304688 L 120.0027694702148 -1369.224487304688 L 120.0002670288086 -1369.224487304688 C 119.0043487548828 -1369.224487304688 118.8570175170898 -1369.23681640625 118.0297546386719 -1369.389282226562 C 115.9812316894531 -1369.767211914062 113.6864242553711 -1370.954345703125 111.7336120605469 -1372.646118164062 C 111.512321472168 -1372.837890625 111.2484588623047 -1373.074584960938 111.0277328491211 -1373.279418945312 C 110.9180221557617 -1373.381103515625 110.8288116455078 -1373.465942382812 110.762580871582 -1373.53125 C 110.7177276611328 -1373.575561523438 110.6834411621094 -1373.61083984375 110.6546630859375 -1373.642456054688 C 110.6234893798828 -1373.676635742188 110.5949859619141 -1373.71142578125 110.5689849853516 -1373.746704101562 C 110.5597610473633 -1373.744140625 110.5504760742188 -1373.741577148438 110.5410232543945 -1373.7392578125 C 110.4852600097656 -1373.661499023438 110.4195861816406 -1373.584716796875 110.3440399169922 -1373.5087890625 C 110.2570877075195 -1373.42138671875 110.1303787231445 -1373.301635742188 109.9331817626953 -1373.120483398438 C 107.5465393066406 -1370.93994140625 105.1459808349609 -1369.690307617188 102.5920104980469 -1369.297729492188 C 102.2083892822266 -1369.239379882812 101.5100402832031 -1369.21337890625 100.9874038696289 -1369.21337890625 C 100.6539993286133 -1369.21337890625 100.3867340087891 -1369.223266601562 100.1930236816406 -1369.24267578125 C 96.68511199951172 -1369.580688476562 93.29718780517578 -1371.682861328125 90.12751770019531 -1375.490356445312 C 89.7620849609375 -1375.925537109375 89.57720947265625 -1376.145751953125 89.57720947265625 -1376.567016601562 C 89.57720947265625 -1377.109497070312 89.88316345214844 -1377.358520507812 90.34629821777344 -1377.735473632812 C 90.58753967285156 -1377.931762695312 90.85035705566406 -1378.137451171875 91.0499267578125 -1378.2861328125 C 91.24740600585938 -1378.435180664062 91.44377136230469 -1378.578247070312 91.64013671875 -1378.7158203125 C 91.62631225585938 -1378.740356445312 91.61174011230469 -1378.766357421875 91.59640502929688 -1378.793701171875 C 91.12924194335938 -1379.634887695312 90.56939697265625 -1380.892944335938 90.20138549804688 -1381.927856445312 C 89.98802185058594 -1382.531127929688 89.64698791503906 -1383.616455078125 89.54916381835938 -1384.00341796875 L 89.54647827148438 -1384.014038085938 L 89.54400634765625 -1384.024780273438 C 89.53024291992188 -1384.084228515625 89.5189208984375 -1384.128784179688 89.51431274414062 -1384.146118164062 L 89.51182556152344 -1384.154418945312 C 89.377197265625 -1384.608032226562 89.52822875976562 -1385.233520507812 90.17799377441406 -1385.535400390625 C 90.28167724609375 -1385.58349609375 90.40359497070312 -1385.62890625 90.64393615722656 -1385.708984375 C 91.2392578125 -1385.906616210938 91.80987548828125 -1386.076538085938 92.36869812011719 -1386.221435546875 C 92.35089111328125 -1386.322143554688 92.33148193359375 -1386.439208984375 92.30976867675781 -1386.576293945312 C 92.24302673339844 -1386.997680664062 92.18072509765625 -1387.457275390625 92.14315795898438 -1387.805786132812 C 92.01580810546875 -1388.95849609375 91.94697570800781 -1390.831665039062 92.00448608398438 -1391.584716796875 C 92.01458740234375 -1391.718872070312 92.02264404296875 -1391.82568359375 92.04762268066406 -1391.940063476562 C 92.16497802734375 -1392.477416992188 92.62278747558594 -1392.852783203125 93.16094970703125 -1392.852783203125 C 93.219970703125 -1392.852783203125 93.27853393554688 -1392.848266601562 93.33839416503906 -1392.839233398438 C 93.39333343505859 -1392.83447265625 93.54438018798828 -1392.824096679688 93.72451782226562 -1392.81689453125 L 93.72720336914062 -1392.816772460938 L 93.72988128662109 -1392.816650390625 C 94.69350433349609 -1392.773193359375 95.87209320068359 -1392.619873046875 96.89646911621094 -1392.405029296875 C 96.96099853515625 -1393.052368164062 97.08402252197266 -1393.903442382812 97.20858764648438 -1394.542602539062 C 97.27288818359375 -1394.878540039062 97.33213806152344 -1395.165405273438 97.37921905517578 -1395.368286132812 C 97.40586090087891 -1395.483032226562 97.42903900146484 -1395.572998046875 97.45008087158203 -1395.643432617188 C 97.69389343261719 -1396.458862304688 98.39633941650391 -1396.500122070312 98.53468322753906 -1396.500122070312 C 98.70475006103516 -1396.500122070312 98.80583190917969 -1396.476928710938 99.25228881835938 -1396.334838867188 C 100.0899353027344 -1396.075805664062 101.1214370727539 -1395.679809570312 101.8207244873047 -1395.3486328125 C 102.4720687866211 -1395.040771484375 103.385009765625 -1394.526611328125 103.8168411254883 -1394.224609375 L 103.9893341064453 -1394.10546875 L 104.3149261474609 -1393.880737304688 C 105.1154098510742 -1396.718994140625 106.6792068481445 -1399.626220703125 108.9078979492188 -1402.396118164062 L 108.909797668457 -1402.3984375 L 108.9116973876953 -1402.40087890625 C 109.0799026489258 -1402.607543945312 109.2784576416016 -1402.845825195312 109.4428482055664 -1403.038330078125 C 109.78955078125 -1403.444213867188 110.0400543212891 -1403.737548828125 110.5626831054688 -1403.737548828125 Z"/></g></g><text class="a" transform="translate(725 894)"><tspan x="0" y="0">pothecary</tspan></text><text class="c" transform="translate(701 860)"><tspan x="0" y="36">A</tspan></text></g></svg>